<?xml version="1.0" standalone="no"?>
<!DOCTYPE svg PUBLIC "-//W3C//DTD SVG 20010904//EN"
 "http://www.w3.org/TR/2001/REC-SVG-20010904/DTD/svg10.dtd">
<svg version="1.0" xmlns="http://www.w3.org/2000/svg"
 width="2272.000000pt" height="2272.000000pt" viewBox="0 0 2272.000000 2272.000000"
 preserveAspectRatio="xMidYMid meet">
<metadata>
Created by potrace 1.14, written by Peter Selinger 2001-2017
</metadata>
<g transform="translate(0.000000,2272.000000) scale(0.100000,-0.100000)"
fill="#000000" stroke="none">
<path d="M237 14166 c-2 -6 -3 -891 -3 -1966 1 -1554 4 -1955 14 -1956 6 -1
13 -2 15 -4 8 -6 57 -4 57 3 0 4 8 4 17 -2 11 -6 24 -6 35 0 10 6 19 5 23 -1
4 -6 15 -6 31 0 14 6 23 7 21 2 -3 -4 8 -7 24 -7 16 0 29 4 29 8 0 4 8 3 18
-2 10 -5 24 -6 32 -1 8 5 21 5 31 -1 12 -6 20 -5 24 1 5 8 11 8 20 0 10 -8 19
-8 34 0 14 7 21 7 21 1 0 -7 8 -7 23 0 l22 10 0 1962 0 1962 -242 1 c-168 1
-243 -2 -246 -10z"/>
<path d="M1009 14161 c-4 -65 -4 -409 1 -421 4 -13 43 -15 265 -16 143 0 280
-3 305 -6 63 -9 140 -28 171 -44 15 -7 29 -10 33 -7 3 4 6 0 6 -7 0 -7 3 -11
6 -7 10 9 98 -50 151 -102 107 -105 163 -266 168 -476 7 -349 -111 -563 -355
-645 -102 -34 -165 -40 -467 -41 -156 0 -283 -3 -284 -7 -4 -31 -3 -425 1
-431 3 -4 140 -7 305 -7 304 0 388 -5 460 -24 45 -12 128 -51 133 -62 2 -5 8
-8 14 -8 15 0 96 -89 104 -114 4 -11 10 -23 13 -26 12 -9 60 -132 75 -195 30
-122 30 -122 42 -250 3 -38 8 -88 10 -110 2 -22 6 -67 9 -100 3 -33 7 -82 10
-110 2 -27 7 -79 10 -115 2 -36 7 -90 9 -120 3 -30 8 -91 11 -135 3 -44 8 -96
10 -115 3 -19 7 -73 10 -119 6 -92 10 -105 31 -97 8 3 14 0 14 -6 0 -7 4 -7
14 1 9 8 16 8 20 2 5 -7 15 -7 32 -1 14 6 23 7 21 2 -3 -4 8 -7 24 -7 16 0 29
4 29 8 0 4 8 3 18 -2 10 -5 24 -6 32 -1 8 5 21 5 31 -1 12 -6 20 -5 24 1 5 8
11 7 21 -1 11 -9 14 -8 14 2 0 10 3 10 11 2 8 -8 20 -8 35 -3 13 5 24 6 24 2
0 -4 11 -7 25 -7 14 0 25 3 25 7 0 4 7 5 15 2 10 -4 13 0 10 14 -2 10 -6 59
-9 108 -4 49 -9 118 -13 154 -3 36 -7 91 -7 122 -1 32 -3 58 -6 58 -3 0 -6 26
-7 58 -1 31 -5 93 -9 137 -4 44 -7 106 -8 137 0 32 -3 58 -6 58 -3 0 -6 19 -7
43 -1 44 -11 212 -13 212 -1 0 -3 25 -5 55 -6 80 -18 165 -31 220 -3 14 -8 34
-10 44 -12 61 -60 182 -98 247 -51 86 -153 195 -221 235 l-47 27 26 23 c14 13
28 24 30 24 6 0 38 32 91 91 59 66 159 247 168 305 1 10 5 24 9 29 6 10 31
126 42 190 29 184 22 408 -18 595 -23 105 -87 255 -147 344 -45 66 -194 216
-216 216 -7 0 -13 3 -13 8 0 4 -10 12 -23 18 -12 6 -47 24 -77 39 -54 27 -215
86 -228 83 -6 -1 -46 6 -107 19 -54 12 -135 15 -422 18 -285 3 -313 2 -314
-14z"/>
<path d="M9810 12208 c0 -1742 2 -1968 15 -1969 49 -3 73 -2 86 3 9 3 22 2 29
-2 8 -5 22 -4 31 1 11 6 20 5 24 -1 4 -6 15 -6 31 0 14 6 23 7 21 2 -3 -4 8
-7 24 -7 16 0 29 4 29 8 0 4 8 3 18 -2 10 -5 24 -6 32 -1 8 5 21 5 31 -1 12
-6 20 -5 24 1 4 6 12 7 18 3 17 -10 47 -11 47 -1 0 4 6 7 13 5 9 -1 12 30 14
126 1 71 3 130 5 132 1 2 1 56 -2 120 -3 64 -3 118 0 120 3 2 3 56 0 120 -3
64 -3 118 0 120 3 2 3 56 0 120 -3 64 -3 118 0 120 3 2 3 56 0 120 -3 64 -3
118 0 120 3 2 3 56 0 120 -3 64 -3 118 0 120 3 2 3 56 0 120 -3 64 -3 119 0
122 3 2 5 12 5 21 0 15 24 17 250 16 l250 -1 0 241 1 241 -252 -1 -252 -1 -4
60 c-2 32 -1 60 2 62 3 2 3 56 0 120 -3 64 -3 118 0 120 3 2 3 56 0 120 -3 64
-3 118 0 120 3 2 3 56 0 120 -3 64 -3 118 0 120 3 2 3 56 0 120 -3 64 -3 118
0 120 3 2 3 56 0 120 -3 64 -3 118 0 120 3 2 3 56 0 120 -3 64 -3 118 0 120 3
2 3 36 0 77 l-5 73 -242 1 -243 1 0 -1969z"/>
<path d="M11589 14146 c0 -17 -1 -402 -2 -856 l-2 -825 -243 -1 c-160 -1 -246
-4 -250 -11 -5 -9 -8 -406 -3 -459 1 -7 77 -10 242 -10 132 1 244 -1 249 -4 4
-3 8 -376 8 -830 0 -454 1 -845 1 -870 1 -41 3 -45 26 -45 14 0 25 3 25 7 0 4
11 3 24 -2 15 -5 27 -5 34 2 6 6 12 6 16 -1 5 -7 15 -7 31 -1 14 5 25 6 25 2
0 -9 53 -8 67 1 5 3 15 2 23 -3 8 -5 21 -5 31 1 11 6 20 5 24 -1 4 -6 15 -6
31 0 17 7 23 7 19 0 -4 -7 3 -7 19 0 14 5 26 6 26 2 0 -7 12 -7 65 -3 7 1 10
664 10 1969 l0 1968 -247 1 -248 0 -1 -31z"/>
<path d="M6527 13294 c-1 -1 -28 -5 -59 -8 -196 -23 -385 -113 -517 -247 -63
-64 -141 -161 -141 -176 0 -5 -8 -20 -17 -33 -32 -45 -79 -186 -89 -269 -8
-64 -9 -2309 -2 -2317 10 -9 63 -11 81 -2 11 6 17 5 17 -2 0 -8 6 -8 20 0 14
8 20 8 20 0 0 -8 6 -8 20 0 14 8 20 8 20 0 0 -8 6 -8 20 0 14 8 20 8 20 0 0
-8 6 -8 20 0 14 8 20 8 20 0 0 -8 6 -8 20 0 14 8 20 8 20 0 0 -8 6 -8 20 0 14
8 20 8 20 0 0 -6 5 -8 11 -5 14 9 79 12 79 4 0 -3 10 -4 23 -2 l23 5 -1 1096
c0 1182 -1 1170 52 1280 58 119 161 192 291 207 97 12 87 -15 87 242 l-1 227
-38 1 c-21 0 -38 -1 -39 -1z"/>
<path d="M6858 13287 c-5 -17 -3 -446 3 -451 2 -2 29 -6 59 -9 141 -14 273
-99 329 -212 21 -42 26 -57 38 -115 3 -14 6 -522 8 -1130 1 -608 3 -1110 4
-1116 1 -15 35 -24 52 -13 7 4 20 4 29 -1 9 -5 23 -4 32 1 10 6 19 6 23 0 4
-7 15 -7 31 -1 14 6 23 7 21 2 -3 -4 8 -7 24 -7 16 0 29 4 29 8 0 4 8 3 18 -2
10 -5 24 -6 32 -1 8 5 21 5 31 -1 12 -6 20 -5 24 1 5 8 11 7 21 -1 11 -9 14
-9 14 0 0 7 5 9 12 5 17 -11 69 -10 76 1 3 5 6 511 7 1125 1 613 5 1129 9
1145 12 53 66 152 104 193 68 73 143 107 262 121 l55 6 0 230 0 229 -49 -3
c-27 -1 -58 -5 -70 -7 -11 -3 -35 -7 -52 -9 -17 -3 -43 -9 -58 -15 -14 -5 -26
-7 -26 -4 0 2 -13 -2 -30 -11 -16 -9 -30 -13 -30 -11 0 18 -234 -120 -281
-165 -14 -13 -36 -34 -50 -46 l-25 -23 -70 65 c-38 36 -75 65 -81 65 -7 0 -13
3 -13 8 0 7 -59 45 -72 46 -4 1 -13 7 -20 14 -6 6 -15 12 -19 12 -4 0 -20 5
-36 12 -15 6 -30 12 -33 13 -3 0 -32 9 -65 19 -67 21 -72 22 -170 31 -38 3
-75 8 -82 10 -6 2 -13 -2 -15 -8z"/>
<path d="M8460 13201 c0 -53 -2 -156 -3 -229 -2 -126 -1 -133 18 -137 26 -5
108 -16 118 -15 4 0 21 -7 37 -15 17 -9 30 -13 30 -10 0 7 78 -43 109 -69 50
-44 91 -121 118 -226 2 -8 5 -518 6 -1133 2 -927 4 -1119 16 -1126 7 -5 28 -5
47 -1 19 4 34 5 34 1 0 -3 13 -6 29 -6 16 0 27 3 24 7 -2 5 7 4 21 -2 16 -6
27 -6 31 0 4 6 13 7 23 1 11 -6 24 -6 35 0 9 6 17 6 17 2 0 -4 16 -8 35 -8 19
0 35 4 35 8 0 4 9 3 20 -3 14 -7 26 -8 39 0 14 7 22 7 26 0 5 -8 11 -8 19 -1
7 6 16 8 19 4 9 -8 8 -120 8 1174 1 766 -3 1127 -10 1141 -6 11 -8 22 -4 25 5
6 -17 85 -38 137 -111 265 -306 454 -544 528 -92 28 -150 38 -272 46 l-43 2 0
-95z"/>
<path d="M18457 13294 c-1 -2 -25 -6 -52 -10 -100 -13 -273 -83 -368 -148 -21
-14 -40 -26 -42 -26 -24 0 -187 -168 -228 -235 -40 -66 -88 -176 -93 -215 -2
-14 -8 -45 -14 -70 -12 -46 -19 -280 -10 -280 3 0 6 -8 6 -17 6 -168 123 -352
299 -475 54 -37 164 -98 190 -104 8 -3 95 -31 155 -52 8 -3 22 -6 30 -8 41 -9
347 -85 360 -91 8 -3 28 -7 43 -9 16 -2 37 -9 47 -14 11 -6 23 -9 27 -8 11 3
176 -48 238 -73 238 -97 330 -197 324 -348 -2 -36 -9 -81 -16 -98 -7 -18 -11
-33 -7 -33 3 0 -2 -7 -10 -16 -9 -8 -16 -22 -16 -30 0 -8 -5 -14 -11 -14 -5 0
-8 -4 -5 -9 8 -12 -126 -146 -167 -167 -18 -9 -43 -22 -57 -30 -41 -21 -83
-36 -115 -40 -28 -4 -64 -10 -75 -14 -3 -1 -21 -3 -40 -3 l-35 -2 0 -220 0
-220 73 0 c39 0 72 2 72 5 0 3 10 5 23 6 48 2 143 21 166 33 9 5 19 9 24 10
17 2 63 14 72 20 6 3 12 6 15 6 15 2 143 73 194 108 71 48 180 155 222 218 35
51 87 158 87 177 0 6 3 12 7 12 3 0 11 21 17 48 7 26 15 61 19 77 17 69 25
308 13 360 -4 17 -13 50 -19 75 -7 25 -12 46 -12 47 3 10 -38 90 -75 147 -38
58 -107 134 -165 182 -59 48 -243 130 -313 140 -29 4 -363 89 -470 119 -49 14
-98 28 -107 30 -29 6 -222 68 -238 75 -8 4 -26 12 -40 17 -101 40 -198 103
-238 154 -35 44 -50 94 -48 160 1 35 4 69 8 74 3 6 9 25 13 43 3 17 11 32 16
32 5 0 9 6 9 14 0 15 71 110 101 136 46 40 61 51 96 68 56 28 111 44 173 51
l55 6 0 202 c0 129 -4 203 -10 203 -5 0 -4 4 4 9 7 5 9 11 4 14 -8 5 -101 6
-106 1z"/>
<path d="M18810 13078 l0 -224 38 -2 c20 -2 62 -10 92 -19 30 -10 58 -17 61
-17 3 -1 40 -19 82 -40 150 -78 225 -181 246 -341 4 -27 11 -49 16 -49 6 1 32
5 58 8 26 4 71 11 100 17 29 5 68 12 87 15 19 3 49 8 65 11 17 2 50 8 75 12
45 6 45 6 44 46 -1 38 -8 92 -17 125 -16 63 -21 77 -31 89 -6 8 -10 16 -8 18
10 14 -121 223 -140 223 -6 0 -9 2 -6 5 4 5 -43 54 -137 143 -8 6 -18 12 -23
12 -5 0 -16 8 -25 18 -14 15 -67 44 -207 112 -47 22 -173 47 -292 56 l-78 6 0
-224z"/>
<path d="M3934 13281 c-2 -3 -12 -6 -22 -7 -68 -7 -124 -19 -169 -34 -29 -10
-53 -17 -53 -15 0 4 -143 -67 -185 -92 -16 -10 -35 -25 -42 -33 -7 -8 -13 -12
-13 -8 0 13 -105 -84 -181 -168 -70 -78 -169 -251 -169 -297 0 -9 -4 -18 -9
-21 -5 -4 -8 -14 -6 -24 1 -9 -1 -21 -5 -27 -4 -5 -7 -63 -6 -127 1 -73 -3
-118 -9 -118 -7 0 -7 -3 0 -8 6 -4 10 -20 10 -37 0 -16 -4 -33 -10 -37 -7 -5
-7 -8 0 -8 7 0 10 -216 10 -628 0 -357 4 -636 9 -647 5 -11 10 -22 11 -25 15
-55 70 -176 85 -185 6 -4 8 -11 5 -16 -4 -5 -2 -9 2 -9 5 0 17 -15 28 -32 10
-18 21 -35 24 -38 3 -3 22 -25 41 -50 156 -200 406 -331 662 -345 31 -2 61 -6
67 -9 5 -4 14 1 18 11 8 17 10 420 2 428 -3 2 -29 6 -59 9 -64 6 -141 33 -208
72 -56 33 -172 146 -172 168 0 9 -4 16 -8 16 -4 0 -14 17 -22 38 -11 28 -14
104 -15 319 l-1 282 38 -2 c21 -2 38 1 38 6 0 4 4 6 10 2 15 -9 140 -12 134
-3 -3 4 1 5 9 2 23 -8 156 -11 151 -2 -3 4 1 5 9 2 23 -8 156 -11 151 -2 -3 4
2 5 10 2 22 -9 126 -10 126 -2 0 4 7 5 15 2 22 -9 225 -10 225 -2 0 4 7 5 15
2 23 -9 225 -10 225 -1 0 5 5 5 11 2 15 -10 178 -12 173 -3 -3 4 1 5 9 2 23
-8 156 -11 151 -2 -3 4 1 5 9 2 20 -7 156 -11 152 -4 -2 4 8 5 23 2 l27 -4 -1
479 c-1 263 -4 489 -7 503 -2 14 -10 45 -17 70 -7 25 -13 50 -15 55 -9 38 -78
161 -118 212 -41 51 -152 155 -207 195 -97 69 -246 142 -305 149 -5 1 -21 6
-35 11 -14 5 -40 12 -57 14 -18 2 -50 6 -70 9 -38 6 -75 8 -104 6 -13 -1 -15
-28 -15 -218 1 -187 3 -218 16 -219 14 0 120 -16 130 -19 5 -2 11 -4 55 -21
11 -4 22 -8 25 -8 3 -1 30 -15 61 -33 116 -66 185 -156 205 -273 7 -36 13
-427 7 -445 -2 -7 -218 -10 -631 -10 l-627 0 -1 210 c0 219 3 245 48 333 31
62 127 163 184 194 80 43 136 59 240 67 11 1 16 440 5 442 -28 3 -84 3 -87 0z"/>
<path d="M13355 13281 c-6 -5 -30 -12 -55 -15 -25 -2 -46 -5 -47 -6 -3 -3 -5
-3 -53 -14 -48 -11 -197 -75 -240 -103 -19 -13 -44 -29 -54 -36 -51 -33 -116
-94 -205 -192 -58 -64 -134 -204 -156 -290 -5 -16 -10 -37 -13 -45 -2 -8 -5
-66 -7 -129 -2 -62 -6 -115 -9 -118 -3 -3 0 -16 5 -30 6 -17 6 -30 -1 -38 -5
-6 -7 -14 -4 -17 7 -8 8 -227 1 -234 -3 -3 -1 -17 4 -31 6 -17 6 -30 -1 -38
-5 -6 -7 -14 -4 -17 7 -8 8 -227 1 -234 -3 -3 -1 -17 4 -31 6 -17 6 -30 -1
-38 -5 -6 -7 -14 -4 -17 7 -8 8 -227 1 -234 -3 -3 -1 -17 4 -31 6 -17 6 -30
-1 -38 -5 -6 -7 -14 -4 -18 8 -8 8 -222 0 -235 -3 -6 -3 -13 2 -16 4 -2 9 -21
10 -42 6 -83 89 -278 149 -348 10 -12 25 -32 34 -46 32 -49 180 -190 199 -190
6 0 10 -4 10 -10 0 -5 4 -10 9 -10 5 0 34 -16 66 -35 55 -33 151 -71 168 -67
4 1 7 -2 7 -6 0 -5 33 -15 73 -22 39 -7 86 -15 102 -19 17 -4 55 -6 85 -6 l55
0 2 228 3 227 -33 2 c-30 1 -45 3 -57 8 -3 1 -20 3 -38 6 -82 10 -217 98 -282
183 -32 42 -72 111 -64 111 4 0 1 6 -5 13 -6 8 -8 17 -4 20 3 4 1 13 -6 21
-17 20 -17 1355 -1 1418 18 67 49 129 89 178 54 67 79 87 156 124 69 34 117
45 232 55 14 1 17 443 2 452 -5 3 -32 3 -59 -1 -27 -3 -51 -3 -52 2 -2 5 -8 4
-13 -1z"/>
<path d="M13726 13280 c-2 -5 0 -439 3 -451 0 -3 13 -5 29 -4 25 1 55 -4 121
-19 13 -3 53 -20 88 -38 114 -57 210 -183 229 -299 8 -52 8 -1334 0 -1398 -3
-25 -10 -49 -16 -55 -5 -5 -10 -17 -10 -26 0 -20 -66 -123 -106 -166 -78 -83
-186 -129 -311 -133 l-23 -1 0 -228 0 -229 38 3 c89 6 150 15 206 29 68 18
229 84 234 97 2 4 10 8 18 8 8 0 14 5 14 10 0 6 5 10 11 10 32 0 205 169 265
259 20 31 44 67 54 81 30 47 59 122 87 235 9 33 9 1546 0 1552 -4 2 -5 8 -2
13 8 13 -15 107 -41 166 -13 30 -23 57 -23 60 0 4 -3 10 -8 13 -9 6 -73 109
-73 117 0 5 -19 27 -72 85 -16 17 -28 35 -28 40 0 5 -3 9 -7 9 -5 0 -21 13
-38 28 -50 46 -112 92 -124 92 -6 0 -11 4 -11 8 0 10 -141 76 -185 87 -16 5
-34 9 -40 11 -5 2 -20 5 -33 8 -13 3 -31 7 -40 10 -37 11 -202 24 -206 16z"/>
<path d="M15226 13283 c-3 -4 -34 -7 -69 -7 l-62 -1 -1 -1143 c-2 -933 1
-1154 12 -1201 7 -32 15 -65 16 -72 4 -17 89 -192 97 -199 3 -3 20 -25 36 -50
44 -65 184 -202 241 -235 27 -15 51 -31 54 -35 15 -20 218 -94 290 -106 14 -3
36 -7 50 -9 14 -3 60 -7 103 -10 l77 -5 0 235 c0 129 -3 236 -7 237 -5 0 -19
2 -33 3 -91 8 -183 37 -250 80 -91 58 -181 168 -194 237 -3 13 -5 24 -7 26 -1
1 -3 7 -4 12 -1 6 -3 511 -4 1123 l-1 1114 -62 1 c-35 1 -70 2 -78 2 -8 1 -32
-1 -52 -2 -21 -2 -38 0 -38 5 0 4 -6 5 -12 0 -17 -10 -59 -11 -79 -1 -9 4 -19
4 -23 1z"/>
<path d="M16906 13283 c-3 -4 -25 -7 -49 -7 l-42 -1 -2 -1108 c-2 -1231 2
-1164 -70 -1268 -20 -30 -55 -71 -77 -91 -40 -37 -156 -106 -156 -92 0 3 -6 1
-14 -5 -8 -6 -18 -11 -22 -10 -5 1 -11 1 -14 -1 -12 -4 -58 -11 -93 -13 -21
-2 -41 -8 -45 -14 -5 -9 -8 -393 -3 -450 1 -11 102 -10 161 2 14 3 41 8 60 11
19 3 42 10 51 15 9 4 19 6 22 3 3 -3 16 0 29 7 12 7 29 14 36 15 26 5 178 85
206 109 16 14 32 25 36 25 9 0 166 153 195 190 22 28 54 75 71 105 6 11 23 41
38 67 14 26 27 51 28 55 0 5 2 13 4 18 34 115 33 88 34 1277 l0 1156 -62 -2
c-35 -1 -69 2 -75 7 -8 6 -13 6 -13 0 0 -5 -19 -8 -42 -6 -47 4 -54 4 -113 0
-22 -1 -47 1 -56 5 -9 4 -19 4 -23 1z"/>
<path d="M21089 13286 c-2 -2 -34 -7 -70 -10 -36 -3 -88 -10 -115 -17 -27 -6
-53 -12 -59 -13 -24 -5 -64 -20 -113 -42 -29 -13 -55 -24 -57 -24 -4 0 -81
-47 -118 -72 -77 -52 -209 -186 -265 -268 -65 -95 -112 -208 -127 -305 -7 -48
-7 -1488 0 -1530 14 -81 33 -137 69 -210 22 -44 44 -84 48 -90 5 -5 30 -39 57
-75 64 -86 198 -220 221 -220 4 0 13 -7 20 -15 15 -19 158 -87 225 -108 76
-23 144 -37 205 -39 30 -2 57 -6 60 -10 3 -4 16 -2 30 5 18 9 24 20 25 50 0
20 -3 37 -8 37 -6 0 -6 5 0 13 5 6 8 30 6 52 -2 22 -3 46 -3 53 0 25 0 102 0
115 0 6 1 31 3 55 2 23 -1 42 -6 42 -4 0 -5 5 -2 10 3 6 -4 10 -17 11 -62 3
-124 16 -162 35 -16 8 -33 14 -38 14 -20 0 -106 66 -163 124 -96 100 -100 116
-101 449 l-1 278 34 -4 c18 -3 33 -1 33 5 0 5 5 6 11 3 15 -10 178 -12 173 -3
-3 4 1 5 9 2 23 -8 156 -11 151 -2 -3 4 1 5 9 2 22 -8 207 -10 207 -2 0 4 7 5
15 2 23 -9 305 -10 305 -1 0 5 5 5 11 1 15 -9 229 -11 229 -2 0 4 7 5 15 2 22
-9 225 -10 225 -2 0 4 7 5 15 2 20 -8 225 -10 225 -3 0 3 10 4 23 2 l22 -4 -1
473 c-2 483 -3 516 -31 603 -65 205 -263 424 -474 522 -94 44 -118 55 -136 58
-10 2 -18 4 -18 5 0 1 -11 3 -25 6 -14 2 -32 7 -40 11 -31 12 -171 28 -217 24
-8 -1 -11 -60 -11 -221 -1 -121 2 -219 6 -218 16 4 136 -14 160 -24 15 -6 29
-12 32 -13 3 -1 19 -8 35 -15 17 -7 33 -14 37 -14 4 -1 13 -7 20 -13 6 -7 17
-13 23 -13 10 0 97 -80 121 -112 28 -36 51 -94 61 -153 4 -24 7 -403 4 -440
-1 -7 -200 -10 -623 -9 -343 1 -626 2 -629 3 -4 0 -6 99 -4 219 2 225 4 241
51 332 27 53 143 165 199 193 68 34 137 52 216 56 14 1 15 27 15 216 -1 137
-5 218 -12 225 -6 6 -12 8 -15 6z"/>
<path d="M18049 11125 c-4 -3 -19 -8 -35 -11 -16 -2 -51 -9 -79 -14 -27 -5
-61 -12 -75 -14 -14 -3 -36 -8 -50 -11 -14 -3 -36 -7 -50 -10 -14 -2 -41 -7
-60 -11 -19 -3 -44 -7 -55 -9 -18 -2 -20 -9 -19 -74 1 -40 10 -98 20 -129 10
-32 17 -60 16 -64 -1 -5 3 -8 8 -8 6 0 9 -3 8 -7 -7 -34 102 -200 193 -292 76
-78 228 -172 324 -201 22 -6 47 -14 55 -17 46 -17 175 -36 260 -37 l64 -1 1
223 c0 217 -1 223 -20 221 -11 -2 -29 0 -40 4 -11 3 -31 8 -45 11 -62 12 -170
55 -170 68 0 5 -6 8 -12 8 -7 0 -30 16 -50 35 -21 18 -38 32 -38 29 0 -9 -57
61 -82 101 -22 35 -50 127 -60 198 -2 11 -6 16 -9 12z"/>
<path d="M4832 11026 c-32 -70 -49 -96 -104 -159 -16 -17 -28 -35 -28 -40 0
-4 -4 -5 -10 -2 -5 3 -10 2 -10 -3 0 -14 -141 -104 -158 -100 -4 1 -20 -4 -37
-11 -28 -12 -96 -22 -156 -25 l-26 -1 2 -220 c2 -250 2 -238 15 -230 6 4 43 9
83 11 71 5 205 33 262 57 70 28 221 109 233 124 6 9 12 14 12 10 0 -10 52 36
120 104 65 65 90 96 90 109 0 6 3 10 8 10 4 0 19 21 32 48 14 26 29 50 33 53
5 3 8 8 7 10 -2 4 15 52 29 84 5 11 14 35 20 54 13 41 14 40 -89 76 -41 14
-84 30 -95 35 -48 20 -151 54 -157 52 -5 -1 -8 2 -8 7 0 5 -8 11 -18 13 -14 4
-25 -10 -50 -66z"/>
<path d="M21940 11080 c0 -6 -7 -27 -17 -48 -9 -20 -17 -39 -17 -42 -1 -3 -18
-30 -39 -60 -36 -54 -124 -140 -169 -166 -74 -42 -179 -74 -258 -78 l-45 -2
-2 -216 c-1 -178 1 -219 13 -228 8 -7 14 -9 14 -4 0 5 24 9 53 10 56 1 101 8
169 24 24 6 48 12 55 13 7 2 16 6 19 10 4 4 14 7 23 7 21 0 221 101 221 111 0
5 5 9 11 9 19 0 83 53 156 129 40 42 73 79 73 83 0 4 6 13 13 20 30 32 75 122
113 228 27 72 27 71 -46 95 -25 7 -106 37 -180 64 -141 53 -160 58 -160 41z"/>
<path d="M5901 8407 c-203 -25 -399 -176 -494 -379 -29 -61 -47 -119 -41 -129
3 -5 1 -9 -4 -9 -5 0 -9 -6 -9 -12 0 -7 -4 -35 -8 -62 -9 -61 -12 -136 -5
-136 3 0 4 -19 4 -42 -1 -24 2 -50 7 -59 4 -9 10 -29 13 -45 15 -79 82 -207
156 -294 45 -53 148 -132 188 -144 12 -4 22 -11 22 -16 0 -4 12 -10 28 -13 15
-3 45 -11 67 -18 84 -25 345 -9 366 24 3 5 9 8 13 8 3 -1 8 0 11 0 3 1 9 2 13
3 5 0 37 20 73 43 56 36 87 63 150 131 40 44 122 186 112 196 -4 3 -1 6 5 6 7
0 11 3 10 8 -1 4 6 41 17 82 27 106 25 260 -4 360 -46 153 -149 308 -253 381
-18 13 -35 26 -38 29 -9 10 -119 61 -152 71 -70 21 -165 27 -247 16z m164
-126 c6 -4 22 -8 36 -9 46 -3 141 -58 208 -122 49 -46 118 -151 126 -190 2 -8
9 -28 16 -45 15 -36 16 -44 25 -115 24 -194 -40 -382 -176 -518 -32 -32 -130
-94 -168 -106 -122 -39 -266 -27 -377 32 -51 27 -170 139 -186 176 -5 12 -18
36 -29 54 -11 18 -20 36 -21 40 -1 4 -5 17 -10 30 -11 30 -21 71 -22 100 -1
12 -4 22 -7 22 -7 0 -4 157 3 200 29 163 125 312 255 394 23 14 42 23 42 19 0
-5 4 -3 8 3 19 30 243 58 277 35z"/>
<path d="M174 8401 c-10 -10 -4 -1350 6 -1356 9 -6 37 -7 80 -4 8 1 22 0 30
-2 13 -3 15 30 15 249 0 138 2 252 5 253 3 0 122 1 265 3 l260 2 65 31 c89 42
149 103 193 193 29 61 52 153 43 175 -3 8 -1 17 3 19 17 11 -28 191 -52 207
-5 3 -8 10 -7 14 4 12 -64 96 -105 130 -47 38 -114 71 -165 80 -38 7 -629 13
-636 6z m633 -131 c51 -16 135 -87 157 -134 9 -20 17 -38 17 -41 0 -2 6 -22
13 -42 20 -61 11 -152 -23 -225 -16 -35 -36 -70 -43 -78 -21 -26 -86 -71 -105
-75 -10 -2 -18 -4 -18 -6 0 -1 -111 -3 -247 -4 -179 -2 -248 0 -249 9 -6 46
-3 602 3 606 16 12 453 3 495 -10z"/>
<path d="M1779 8402 c-12 -2 -14 -100 -12 -679 1 -674 1 -677 22 -684 11 -5
23 -4 26 1 3 5 15 6 28 1 12 -5 34 -5 50 0 15 4 34 6 41 3 23 -9 106 -9 106
-1 0 5 4 6 8 3 7 -4 50 -6 115 -6 9 0 37 0 62 0 25 0 51 0 58 1 6 0 33 -1 59
-2 26 -2 50 0 54 3 3 4 12 4 20 1 18 -7 214 -9 214 -3 0 3 12 6 27 5 25 0 26
3 28 52 1 40 -2 54 -14 57 -9 3 -182 5 -384 5 -203 0 -372 3 -375 6 -4 4 -7
121 -8 260 l0 254 27 -1 c14 -1 30 1 35 4 5 3 18 2 29 -2 11 -4 29 -4 40 0 11
4 29 4 40 0 11 -4 29 -4 40 0 11 4 29 4 40 0 11 -4 30 -3 43 1 13 5 21 5 18 0
-4 -5 9 -6 29 -1 19 4 35 5 35 1 0 -3 11 -6 25 -6 14 0 25 4 25 8 0 4 8 4 17
-2 11 -6 24 -6 35 0 10 5 18 6 18 2 0 -4 11 -8 25 -8 14 0 25 4 25 8 0 4 8 3
18 -2 11 -6 24 -6 35 0 10 6 17 6 17 1 0 -5 11 -7 25 -4 23 4 25 9 25 58 0 49
-2 54 -22 55 -13 0 -163 1 -334 2 l-311 0 1 243 c0 160 4 245 11 247 5 2 176
3 378 2 415 0 379 -8 374 80 l-2 39 -436 1 c-239 0 -442 -1 -450 -3z"/>
<path d="M3359 8402 c-15 -3 -16 -62 -15 -679 1 -593 3 -676 16 -678 8 -2 20
-4 25 -5 6 -1 28 -2 50 -1 l41 1 -1 550 c0 303 2 550 5 550 3 0 21 -30 40 -68
19 -37 38 -68 43 -70 4 -2 7 -10 7 -18 0 -8 5 -14 10 -14 6 0 9 -3 8 -7 -1 -5
5 -19 13 -33 32 -51 79 -130 79 -134 0 -3 20 -39 45 -80 25 -42 45 -81 45 -86
0 -6 5 -10 10 -10 6 0 10 -6 10 -14 0 -8 6 -21 13 -28 6 -8 20 -29 31 -48 10
-19 27 -50 37 -67 11 -18 29 -50 41 -70 12 -21 28 -50 35 -65 20 -40 36 -46
102 -39 9 1 91 138 91 152 0 5 5 9 10 9 6 0 10 4 10 10 0 9 129 239 140 250 3
3 13 21 22 40 10 19 31 58 47 85 16 28 36 61 44 75 7 14 23 42 35 63 12 20 32
54 44 75 12 20 28 51 37 67 15 28 16 -11 19 -521 l2 -552 35 -4 c20 -2 38 -2
41 1 2 3 17 5 32 6 l27 0 0 665 c0 366 -1 672 -3 681 -3 12 -17 15 -68 14 -35
-1 -66 -4 -68 -6 -2 -2 -16 -26 -32 -54 -16 -27 -34 -59 -41 -70 -7 -11 -15
-27 -20 -35 -4 -8 -44 -79 -90 -157 -46 -78 -83 -147 -83 -152 0 -5 -4 -11 -9
-13 -5 -1 -11 -10 -13 -18 -2 -8 -5 -17 -8 -20 -8 -7 -80 -131 -80 -136 0 -3
-14 -25 -30 -50 -17 -24 -28 -44 -25 -44 4 0 -4 -15 -17 -32 -13 -18 -35 -55
-49 -83 -15 -27 -31 -51 -36 -52 -4 -2 -20 18 -34 44 -14 27 -72 129 -129 228
-57 99 -111 195 -122 213 -10 17 -28 49 -39 70 -12 20 -35 62 -52 92 -16 30
-36 62 -43 71 -8 9 -11 19 -7 22 3 4 2 7 -4 7 -6 0 -16 15 -24 33 -7 17 -16
34 -20 37 -3 3 -16 24 -28 47 -11 23 -26 45 -33 50 -13 8 -89 11 -119 5z"/>
<path d="M7281 8395 c-4 -5 -7 -311 -7 -680 l1 -670 30 -5 c17 -3 46 -3 65 0
l35 5 2 295 c1 162 3 304 3 316 0 20 3 20 403 20 l402 -1 0 -312 c1 -172 3
-314 5 -317 6 -5 45 -9 92 -7 l36 1 -1 682 -2 682 -62 1 c-35 0 -64 -4 -66
-10 -1 -5 -3 -142 -2 -302 0 -190 -3 -293 -10 -294 -5 -1 -185 -2 -399 -3
-263 -1 -390 2 -393 9 -2 6 -5 143 -6 305 l-2 294 -58 1 c-32 0 -62 -4 -66
-10z"/>
<path d="M8961 8400 c-8 -6 -9 -109 -1 -111 3 -1 109 -2 237 -3 128 -1 235 -5
239 -8 3 -4 7 -282 7 -618 0 -429 3 -612 10 -617 14 -8 107 -6 116 2 3 4 6
284 6 623 l1 617 241 0 c272 -1 254 -7 243 80 l-5 40 -543 0 c-299 0 -547 -2
-551 -5z"/>
<path d="M11517 8398 c-9 -6 -12 -163 -12 -683 l0 -677 42 4 c24 2 43 0 43 -3
0 -3 11 -4 25 -1 23 4 31 20 25 47 -1 6 -2 16 -1 23 4 47 3 124 -2 128 -3 4
-2 17 3 30 6 14 6 24 0 24 -5 0 -5 12 0 29 4 15 4 34 0 41 -5 7 -6 20 -2 28 3
8 5 38 4 66 -1 28 -2 60 -1 71 0 11 0 26 0 33 -1 22 -2 46 -1 82 l1 35 102 0
c56 0 107 -4 112 -10 6 -5 43 -53 82 -105 156 -206 295 -386 314 -406 10 -11
19 -26 19 -32 0 -7 4 -12 9 -12 6 0 18 -13 27 -30 18 -30 69 -56 79 -40 3 5
15 6 26 2 11 -4 35 -6 54 -4 l34 4 -27 37 c-15 20 -29 38 -32 41 -4 3 -21 26
-40 53 -18 26 -37 47 -41 47 -4 0 -10 8 -13 18 -3 9 -16 28 -29 42 -12 14 -34
41 -47 60 -13 19 -30 41 -37 48 -7 8 -26 30 -40 50 -15 21 -54 69 -85 109 -32
39 -58 74 -58 78 0 3 -10 17 -22 30 -65 69 -74 89 -48 115 11 11 17 20 13 20
-5 0 -3 4 3 8 5 4 57 68 114 142 58 74 109 140 115 146 5 6 48 62 95 123 46
61 88 111 93 111 4 0 5 5 2 10 -3 6 1 13 9 16 9 3 16 12 16 19 0 7 7 16 16 19
32 12 4 21 -63 20 -37 -1 -71 -2 -75 -3 -4 -1 -28 -29 -54 -63 -27 -35 -51
-65 -54 -68 -3 -3 -25 -32 -50 -65 -24 -33 -49 -65 -55 -72 -13 -16 -24 -30
-60 -78 -43 -59 -48 -65 -67 -83 -10 -9 -18 -22 -18 -29 0 -7 -3 -13 -7 -13
-5 0 -24 -23 -43 -50 -19 -27 -38 -50 -42 -50 -5 0 -8 -7 -8 -15 0 -16 2 -16
-119 -18 -71 -2 -85 1 -96 17 -8 10 -11 28 -9 40 3 11 5 46 5 76 -1 30 -1 64
0 75 0 11 0 26 0 33 -2 22 -1 41 0 97 1 31 -1 58 -4 61 -3 4 -2 17 3 30 6 14
6 24 0 24 -5 0 -5 12 -2 28 7 25 7 49 2 62 -7 18 -5 50 3 50 6 0 7 3 3 7 -9 9
-114 11 -129 1z"/>
<path d="M13129 8395 c-3 -31 -4 -1323 -1 -1336 4 -18 59 -32 68 -18 2 5 11 6
19 3 22 -9 105 -10 105 -2 0 4 6 5 13 2 21 -8 187 -10 187 -2 0 4 6 5 14 2 21
-8 106 -10 106 -2 0 4 12 3 28 -1 15 -4 39 -4 55 0 16 4 27 3 27 -2 0 -6 3 -8
8 -6 4 3 34 8 66 12 85 9 181 56 233 113 64 68 85 121 89 220 4 96 -18 169
-70 239 -28 37 -115 106 -137 109 -5 1 -13 2 -19 3 -19 2 -10 17 21 35 18 10
45 33 60 50 34 36 81 130 85 166 1 14 3 27 4 30 1 3 2 30 1 60 -5 156 -112
300 -242 326 -56 11 -719 10 -720 -1z m672 -119 c21 -4 52 -23 73 -44 108
-104 113 -272 11 -377 -65 -68 -85 -72 -370 -71 l-250 1 -3 250 -2 251 252 -1
c139 -1 269 -5 289 -9z m74 -625 c180 -100 186 -352 11 -460 -19 -12 -48 -25
-63 -28 -32 -6 -532 -11 -550 -5 -10 3 -13 63 -13 256 0 139 2 255 4 257 2 2
132 4 288 3 273 -1 284 -2 323 -23z"/>
<path d="M15204 8401 c-10 -10 -44 -94 -44 -107 0 -8 -5 -14 -12 -14 -6 0 -9
-3 -5 -6 3 -4 -1 -21 -10 -38 -10 -17 -18 -33 -18 -36 -1 -3 -7 -18 -13 -33
-7 -16 -12 -30 -12 -33 0 -2 -9 -23 -19 -47 -11 -23 -32 -71 -46 -107 -14 -36
-35 -84 -46 -107 -10 -24 -19 -45 -19 -48 0 -4 -9 -25 -19 -49 -11 -23 -29
-65 -40 -92 -10 -27 -27 -66 -35 -86 -9 -21 -16 -40 -15 -43 0 -4 -6 -16 -14
-28 -7 -12 -22 -46 -32 -74 -11 -29 -22 -53 -25 -53 -4 0 -7 -6 -7 -12 0 -7
-7 -29 -15 -48 -9 -19 -23 -51 -32 -72 -9 -20 -16 -39 -16 -42 0 -6 -45 -108
-61 -138 -14 -27 -11 -44 9 -45 9 -1 22 -2 27 -3 6 -1 28 -2 50 -1 35 1 42 5
55 34 8 17 15 34 16 37 0 3 6 18 12 33 7 15 39 94 72 175 l61 148 306 0 306
-1 15 -35 c22 -50 35 -83 76 -185 20 -49 41 -99 46 -110 4 -11 14 -35 22 -53
9 -24 21 -35 43 -40 17 -3 35 -5 40 -3 6 2 25 3 43 3 37 -2 36 -3 18 40 -8 18
-21 49 -29 68 -15 36 -60 142 -82 195 -7 17 -34 82 -60 145 -25 63 -52 129
-60 145 -37 80 -63 145 -58 145 3 0 0 7 -7 15 -7 8 -9 15 -4 15 5 0 4 4 -1 8
-6 4 -21 34 -34 67 -13 33 -32 78 -42 100 -18 43 -65 155 -124 299 -48 119
-50 121 -108 121 -27 0 -50 -2 -53 -4z m101 -271 c36 -92 78 -194 96 -235 8
-19 31 -75 34 -85 3 -10 18 -45 47 -115 17 -38 31 -75 32 -82 1 -7 5 -16 9
-19 4 -4 7 -11 7 -15 0 -4 -123 -7 -274 -7 l-274 1 11 31 c6 17 15 34 21 38 6
4 8 8 4 8 -4 0 2 21 13 48 11 26 45 108 75 182 30 74 59 144 64 155 29 64 59
135 71 167 7 21 16 35 19 30 4 -4 24 -50 45 -102z"/>
<path d="M16483 8398 c-2 -5 -2 -8 2 -8 3 0 1 -8 -4 -18 -7 -13 -7 -22 0 -29
8 -8 7 -13 0 -17 -8 -5 -8 -13 -1 -27 8 -13 7 -19 0 -19 -7 0 -8 -6 -1 -18 7
-13 7 -22 0 -29 -8 -8 -7 -13 0 -17 8 -5 8 -13 1 -26 -6 -12 -7 -21 0 -25 5
-3 7 -12 4 -19 -8 -20 -10 -96 -3 -96 3 0 3 -18 -1 -39 -4 -21 -3 -46 2 -54 5
-9 4 -18 -1 -22 -7 -4 -7 -15 -1 -30 6 -16 6 -25 0 -25 -6 0 -6 -10 0 -26 6
-14 7 -23 2 -21 -4 3 -7 -19 -7 -49 0 -30 3 -54 6 -54 4 0 3 -18 -1 -39 -4
-21 -3 -46 2 -54 5 -9 4 -18 -1 -22 -7 -4 -7 -15 -1 -30 6 -16 6 -25 0 -25 -6
0 -6 -10 0 -26 6 -14 7 -23 2 -21 -4 3 -7 -19 -7 -49 0 -30 3 -54 6 -54 4 0 3
-18 -1 -39 -4 -21 -3 -46 2 -54 5 -9 4 -18 -1 -22 -7 -4 -7 -15 -1 -30 6 -16
6 -25 0 -25 -6 0 -6 -9 0 -25 6 -15 6 -26 0 -30 -7 -4 -6 -13 0 -26 6 -10 7
-19 3 -19 -7 0 -7 -26 -1 -87 1 -7 11 -13 22 -14 12 0 40 -1 64 -2 23 -1 43 3
43 8 1 6 2 120 3 254 l1 245 255 1 c140 2 268 6 285 9 45 11 118 54 160 94 53
52 85 106 111 187 52 164 11 328 -113 451 -55 54 -132 98 -193 110 -49 9 -631
11 -637 2z m659 -141 c221 -108 230 -456 15 -569 -39 -21 -56 -23 -272 -25
-126 -1 -239 0 -250 2 -20 4 -20 11 -19 307 1 167 2 305 3 308 0 3 106 5 234
5 l233 -1 56 -27z"/>
<path d="M17944 8401 c-2 -2 -4 -29 -4 -60 l0 -56 243 0 242 0 1 -615 c1 -338
2 -618 3 -621 2 -10 56 -16 77 -8 11 3 25 2 31 -3 15 -12 29 14 18 32 -3 5 -3
10 2 10 9 0 9 52 0 66 -3 6 -2 16 3 23 4 8 4 27 0 42 -5 16 -6 29 -2 29 8 0 8
53 -1 66 -3 6 -2 16 3 23 4 8 4 27 0 42 -5 16 -6 29 -2 29 8 0 8 53 -1 66 -3
6 -2 16 3 23 4 8 4 27 0 42 -5 16 -6 29 -2 29 8 0 8 53 -1 66 -3 6 -2 16 3 23
4 8 4 27 0 42 -5 16 -6 29 -2 29 8 0 8 53 -1 66 -3 6 -2 16 3 23 4 8 4 27 0
42 -5 16 -6 29 -2 29 9 0 8 58 -1 66 -3 4 -3 14 2 23 9 16 7 48 -3 58 -3 3 -1
14 4 24 7 12 7 20 0 24 -6 4 -7 13 -1 24 5 9 6 23 1 30 -4 8 -4 27 0 42 5 17
5 29 0 29 -6 0 -6 10 0 24 5 15 5 27 -2 34 -22 22 25 27 252 27 l235 0 0 53
c1 29 -4 56 -10 60 -11 7 -1084 10 -1091 3z"/>
<path d="M19661 8255 c0 -82 -1 -154 -2 -160 -1 -5 0 -14 1 -20 5 -25 3 -95
-2 -101 -4 -3 -3 -17 2 -30 6 -16 6 -24 -1 -24 -6 0 -7 -4 -4 -10 5 -8 9 -246
4 -275 -1 -5 0 -14 1 -20 2 -12 2 -127 0 -140 -2 -5 -1 -14 0 -20 2 -12 2
-127 0 -140 -2 -5 -1 -14 0 -20 2 -12 2 -127 0 -140 -2 -5 -1 -14 0 -20 1 -5
2 -29 1 -52 -1 -34 2 -42 16 -42 110 -2 116 -1 134 18 11 11 19 23 19 26 0 3
24 38 53 78 29 40 81 110 115 157 34 47 66 90 72 97 5 7 10 15 10 17 0 6 24
37 48 62 7 8 10 14 5 14 -4 0 -3 4 2 8 6 4 62 79 125 167 63 88 118 165 122
170 4 6 18 24 30 40 13 17 39 53 58 80 19 28 39 55 45 62 5 6 33 44 60 84 l50
72 5 -574 c4 -499 7 -574 20 -578 19 -4 100 -2 109 3 9 6 6 1344 -3 1353 -11
12 -109 10 -122 -3 -6 -5 -56 -73 -110 -150 -54 -76 -102 -143 -107 -149 -10
-13 -73 -100 -117 -164 -19 -28 -38 -50 -42 -51 -5 0 -8 -6 -8 -12 0 -7 -11
-26 -25 -43 -30 -38 -163 -222 -212 -295 -21 -30 -42 -60 -48 -66 -5 -6 -17
-22 -25 -34 -8 -12 -21 -28 -27 -36 -7 -7 -13 -16 -13 -21 0 -4 -10 -19 -22
-33 -13 -14 -36 -44 -52 -67 -16 -24 -30 -43 -31 -43 -1 0 -1 253 -1 563 1
310 -1 574 -4 588 -5 22 -9 24 -67 24 l-62 0 0 -150z"/>
<path d="M21519 8400 c-5 -17 -3 -1343 1 -1349 6 -10 60 -20 60 -12 0 4 16 5
35 3 l35 -4 2 253 3 252 260 1 c172 1 267 5 280 13 11 6 22 11 25 11 3 0 21 6
40 15 48 20 122 92 158 152 32 52 65 149 55 159 -4 3 -2 6 3 6 10 0 10 106 0
160 -30 155 -183 315 -322 336 -48 8 -633 11 -635 4z m581 -122 c0 -4 6 -5 14
-2 8 3 34 -4 58 -15 118 -54 188 -182 175 -319 -11 -113 -44 -171 -145 -253
-23 -19 -56 -22 -304 -24 l-248 -3 0 308 c0 168 2 309 4 311 8 7 446 4 446 -3z"/>
</g>
</svg>
