<svg width="80" height="80" viewBox="0 0 80 80" fill="none" xmlns="http://www.w3.org/2000/svg">
<path d="M66.7224 17.3695C66.0305 17.3695 65.4698 17.9303 65.4698 18.6222V76.2422C65.4698 76.9329 64.9079 77.4948 64.2171 77.4948H15.7829C15.0921 77.4948 14.5302 76.9329 14.5302 76.2422V65.3862C14.5302 64.6945 13.9694 64.1336 13.2776 64.1336C12.5857 64.1336 12.0249 64.6943 12.0249 65.3862V76.2422C12.0249 78.3144 13.7105 80 15.7827 80H64.2173C66.2893 80 67.9751 78.3144 67.9751 76.2422V18.6222C67.9751 17.9303 67.4143 17.3695 66.7224 17.3695Z" fill="#D4C17F"/>
<path d="M64.2171 0H15.7827C13.7107 0 12.0249 1.68562 12.0249 3.75781V57.3695C12.0249 58.0613 12.5857 58.6222 13.2776 58.6222C13.9694 58.6222 14.5302 58.0614 14.5302 57.3695V3.75781C14.5302 3.06703 15.0921 2.50516 15.7829 2.50516H64.2171C64.9079 2.50516 65.4698 3.06703 65.4698 3.75781V11.9416C65.4698 12.6333 66.0304 13.1942 66.7224 13.1942C67.4143 13.1942 67.9751 12.6334 67.9751 11.9416V3.75781C67.9749 1.68562 66.289 0 64.2171 0Z" fill="#D4C17F"/>
<path d="M61.3779 5.34448H18.6223C17.9306 5.34448 17.3696 5.90526 17.3696 6.59714V31.9834C17.3696 32.6751 17.9304 33.236 18.6223 33.236H61.3781C62.0699 33.236 62.6307 32.6753 62.6307 31.9834V6.59698C62.6306 5.90526 62.0699 5.34448 61.3779 5.34448ZM60.1254 30.7306H19.8748V7.84964H60.1253V30.7306H60.1254Z" fill="#D4C17F"/>
<path d="M61.3777 36.0752H42.6721C41.9802 36.0752 41.4194 36.636 41.4194 37.3279V53.3613C41.4194 54.053 41.9801 54.6139 42.6721 54.6139H61.3777C62.0696 54.6139 62.6304 54.0532 62.6304 53.3613V37.3279C62.6304 36.636 62.0697 36.0752 61.3777 36.0752ZM60.1252 52.1086H43.9247V38.5805H60.1252V52.1086Z" fill="#D4C17F"/>
<path d="M37.3279 36.0752H18.6223C17.9306 36.0752 17.3696 36.636 17.3696 37.3279V53.3613C17.3696 54.053 17.9304 54.6139 18.6223 54.6139H37.3279C38.0196 54.6139 38.5806 54.0532 38.5806 53.3613V37.3279C38.5804 36.636 38.0196 36.0752 37.3279 36.0752ZM36.0753 52.1086H19.8748V38.5805H36.0753V52.1086Z" fill="#D4C17F"/>
<path d="M61.3777 56.1168H42.6721C41.9802 56.1168 41.4194 56.6776 41.4194 57.3695V73.4029C41.4194 74.0946 41.9801 74.6556 42.6721 74.6556H61.3777C62.0696 74.6556 62.6304 74.0948 62.6304 73.4029V57.3695C62.6304 56.6778 62.0697 56.1168 61.3777 56.1168ZM60.1252 72.1503H43.9247V58.6221H60.1252V72.1503Z" fill="#D4C17F"/>
<path d="M37.3279 56.1168H18.6223C17.9306 56.1168 17.3696 56.6776 17.3696 57.3695V73.4029C17.3696 74.0946 17.9304 74.6556 18.6223 74.6556H37.3279C38.0196 74.6556 38.5806 74.0948 38.5806 73.4029V57.3695C38.5804 56.6778 38.0196 56.1168 37.3279 56.1168ZM36.0753 72.1503H19.8748V58.6221H36.0753V72.1503Z" fill="#D4C17F"/>
<path d="M31.9834 44.0919H29.2276V41.3362C29.2276 40.6444 28.6668 40.0835 27.975 40.0835C27.2831 40.0835 26.7223 40.6443 26.7223 41.3362V44.0919H23.9665C23.2748 44.0919 22.7139 44.6527 22.7139 45.3446C22.7139 46.0365 23.2746 46.5972 23.9665 46.5972H26.7223V49.353C26.7223 50.0447 27.2831 50.6057 27.975 50.6057C28.6668 50.6057 29.2276 50.0449 29.2276 49.353V46.5972H31.9834C32.6751 46.5972 33.2361 46.0365 33.2361 45.3446C33.2361 44.6527 32.6751 44.0919 31.9834 44.0919Z" fill="#D4C17F"/>
<path d="M56.0335 44.0919H48.0168C47.3249 44.0919 46.7642 44.6527 46.7642 45.3446C46.7642 46.0364 47.3248 46.5972 48.0168 46.5972H56.0335C56.7254 46.5972 57.2862 46.0364 57.2862 45.3446C57.2862 44.6527 56.7254 44.0919 56.0335 44.0919Z" fill="#D4C17F"/>
<path d="M29.7463 65.3862L32.8689 62.2636C33.3581 61.7745 33.3581 60.9812 32.8689 60.4922C32.3797 60.0029 31.5866 60.0029 31.0975 60.4922L27.9748 63.6148L24.8522 60.4922C24.363 60.0029 23.5698 60.0029 23.0808 60.4922C22.5916 60.9814 22.5916 61.7745 23.0808 62.2636L26.2034 65.3862L23.0808 68.5089C22.6247 68.9648 22.5944 69.7183 23.0141 70.2084C23.4825 70.7554 24.3425 70.7898 24.852 70.2803L27.9747 67.1576L31.0973 70.2803C31.6069 70.7898 32.4669 70.7554 32.9353 70.2084C33.3552 69.7183 33.3248 68.9648 32.8686 68.5089L29.7463 65.3862Z" fill="#D4C17F"/>
<path d="M56.9191 60.4922C56.4297 60.0029 55.6368 60.0029 55.1475 60.4922L47.1308 68.5089C46.3591 69.2804 46.921 70.6472 48.0164 70.6472C48.3369 70.6472 48.6575 70.525 48.9022 70.2803L56.9189 62.2636C57.4083 61.7743 57.4083 60.9812 56.9191 60.4922Z" fill="#D4C17F"/>
<path d="M50.2367 61.8283L48.9013 60.4922C48.4122 60.0029 47.6196 60.0029 47.1306 60.4922C46.6417 60.9814 46.6417 61.7745 47.1306 62.2636L48.4659 63.5997C48.9752 64.109 49.8349 64.0748 50.3031 63.5278C50.7227 63.0376 50.6926 62.2842 50.2367 61.8283Z" fill="#D4C17F"/>
<path d="M56.9175 68.5089L55.582 67.1728C55.0928 66.6836 54.3003 66.6836 53.8113 67.1728C53.3223 67.662 53.3223 68.4552 53.8113 68.9442L55.1467 70.2803C55.656 70.7897 56.5157 70.7555 56.9839 70.2084C57.4035 69.7183 57.3732 68.9649 56.9175 68.5089Z" fill="#D4C17F"/>
<path d="M56.9192 17.7364L48.9025 9.7197C48.4131 9.23048 47.6201 9.23048 47.1309 9.7197L39.1142 17.7364C38.8792 17.9713 38.7473 18.2899 38.7473 18.622V27.9749C38.7473 28.6666 39.3081 29.2275 40 29.2275H45.3445C46.0364 29.2275 46.5972 28.6667 46.5972 27.9749V23.883H49.4364V27.9749C49.4364 28.6666 49.997 29.2275 50.689 29.2275H56.0336C56.7254 29.2275 57.2862 28.6667 57.2862 27.9749V18.622C57.2859 18.29 57.154 17.9713 56.9192 17.7364ZM54.7807 26.7224H51.9415V22.6305C51.9415 21.9388 51.3809 21.3778 50.6889 21.3778H45.3443C44.6525 21.3778 44.0917 21.9386 44.0917 22.6305V26.7224H41.2525V19.1409L48.0165 12.3769L54.7806 19.1409V26.7224H54.7807Z" fill="#D4C17F"/>
<path d="M34.2051 11.0559C33.7159 10.5667 32.9228 10.5667 32.4337 11.0559L22.4128 21.0768C21.6411 21.8482 22.203 23.2151 23.2984 23.2151C23.6189 23.2151 23.9395 23.0929 24.1841 22.8482L34.205 12.8273C34.6942 12.3379 34.6942 11.5448 34.2051 11.0559Z" fill="#D4C17F"/>
<path d="M35.5412 19.0725C35.0519 18.5833 34.2588 18.5833 33.7697 19.0725L29.7615 23.0808C29.3054 23.5367 29.2751 24.2901 29.6947 24.7803C30.1632 25.3273 31.0232 25.3617 31.5327 24.8522L35.541 20.8439C36.0304 20.3547 36.0304 19.5615 35.5412 19.0725Z" fill="#D4C17F"/>
</svg>
