<svg width="80" height="80" viewBox="0 0 80 80" fill="none" xmlns="http://www.w3.org/2000/svg">
<g clip-path="url(#clip0_922_488)">
<path d="M15.7029 57.1094C16.3504 57.1094 16.8746 56.5845 16.8746 55.9375V44.6875C16.8746 44.0405 16.3504 43.5156 15.7029 43.5156C15.0555 43.5156 14.5312 44.0405 14.5312 44.6875V55.9375C14.5312 56.5845 15.0555 57.1094 15.7029 57.1094Z" fill="#D4C17F"/>
<path d="M22.1092 57.1094C22.7567 57.1094 23.2809 56.5845 23.2809 55.9375V44.6875C23.2809 44.0405 22.7567 43.5156 22.1092 43.5156C21.4617 43.5156 20.9375 44.0405 20.9375 44.6875V55.9375C20.9375 56.5845 21.4617 57.1094 22.1092 57.1094Z" fill="#D4C17F"/>
<path d="M28.3592 57.1094C29.0067 57.1094 29.5309 56.5845 29.5309 55.9375V44.6875C29.5309 44.0405 29.0067 43.5156 28.3592 43.5156C27.7117 43.5156 27.1875 44.0405 27.1875 44.6875V55.9375C27.1875 56.5845 27.7117 57.1094 28.3592 57.1094Z" fill="#D4C17F"/>
<path d="M34.7654 51.4844C35.4129 51.4844 35.9371 50.9595 35.9371 50.3125V44.6875C35.9371 44.0405 35.4129 43.5156 34.7654 43.5156C34.118 43.5156 33.5938 44.0405 33.5938 44.6875V50.3125C33.5938 50.9595 34.118 51.4844 34.7654 51.4844Z" fill="#D4C17F"/>
<path d="M76.3283 17.3436H73.9845C73.3369 17.3436 72.8126 17.8686 72.8126 18.5155C72.8126 19.1625 73.3369 19.6874 73.9845 19.6874H76.3283C76.9746 19.6874 77.5002 20.2129 77.5002 20.8593V68.8281C77.5002 69.4745 76.9746 70 76.3283 70H69.4862C69.6162 69.6332 69.6876 69.2389 69.6876 68.8281V64.8437C69.6876 64.1968 69.1633 63.6719 68.5158 63.6719C67.8682 63.6719 67.3439 64.1968 67.3439 64.8437V68.8281C67.3439 69.4745 66.8184 70 66.172 70H28.866C29.0424 69.5654 29.1407 69.0906 29.1407 68.5937C29.1407 66.9354 28.0579 65.5255 26.5626 65.0323V62.5H28.7153C30.1917 62.5 31.6028 61.9488 32.6874 60.9479L43.8941 50.6128C45.0935 49.5068 45.7813 47.937 45.7813 46.3055V41.7968C45.7813 40.2892 44.5545 39.0624 43.047 39.0624H20.9375V11.1718C20.9375 10.5254 21.4631 9.99988 22.1094 9.99988H66.172C66.8184 9.99988 67.3439 10.5254 67.3439 11.1718V59.375C67.3439 60.022 67.8682 60.5469 68.5158 60.5469C69.1633 60.5469 69.6876 60.022 69.6876 59.375V11.1718C69.6876 9.23328 68.1105 7.65613 66.172 7.65613H22.1094C20.1709 7.65613 18.5938 9.23328 18.5938 11.1718V39.0624H10.3125V32.7343C10.3125 30.7958 8.73537 29.2187 6.79689 29.2187H3.35938C1.4209 29.2187 -0.15625 30.7958 -0.15625 32.7343C-0.15625 34.6728 1.4209 36.2499 3.35938 36.2499H7.96877V59.7656C7.96877 61.1938 9.07045 62.3688 10.4688 62.4878V65.0323C8.97341 65.5255 7.89064 66.9354 7.89064 68.5937C7.89064 70.6616 9.57277 72.3438 11.6406 72.3438C13.299 72.3438 14.7089 71.261 15.2021 69.7656H21.8293C22.3224 71.261 23.7323 72.3438 25.3907 72.3438H76.3283C78.2668 72.3438 79.8439 70.7666 79.8439 68.8281V20.8593C79.8439 18.9208 78.2668 17.3436 76.3283 17.3436ZM24.2188 65.0323C23.0921 65.404 22.201 66.2952 21.8293 67.4219H15.2021C14.8304 66.2952 13.9392 65.404 12.8125 65.0323V62.5H24.2188V65.0323ZM2.1875 32.7343C2.1875 32.0879 2.71302 31.5624 3.35938 31.5624H6.79689C7.44325 31.5624 7.96877 32.0879 7.96877 32.7343V33.9062H3.35938C2.71302 33.9062 2.1875 33.3807 2.1875 32.7343ZM10.3125 59.7656V41.4062H43.047C43.2624 41.4062 43.4376 41.5814 43.4376 41.7968V46.3055C43.4376 47.2845 43.025 48.2263 42.3054 48.8903L31.0987 59.2248C30.4474 59.8254 29.6009 60.1562 28.7153 60.1562H10.7031C10.4877 60.1562 10.3125 59.9811 10.3125 59.7656V59.7656ZM11.6406 70C10.8649 70 10.2344 69.3689 10.2344 68.5937C10.2344 67.8186 10.8649 67.1875 11.6406 67.1875C12.4164 67.1875 13.0469 67.8186 13.0469 68.5937C13.0469 69.3689 12.4164 70 11.6406 70ZM25.3907 67.1875C26.1664 67.1875 26.7969 67.8186 26.7969 68.5937C26.7969 69.3689 26.1664 70 25.3907 70C24.6149 70 23.9844 69.3689 23.9844 68.5937C23.9844 67.8186 24.6149 67.1875 25.3907 67.1875Z" fill="#D4C17F"/>
<path d="M61.0938 28.6719C61.0938 27.1643 59.867 25.9375 58.3594 25.9375H55.3906C53.8831 25.9375 52.6562 27.1643 52.6562 28.6719V31.6406C52.6562 33.1482 53.8831 34.375 55.3906 34.375H58.3594C59.867 34.375 61.0938 33.1482 61.0938 31.6406V28.6719ZM58.75 31.6406C58.75 31.8561 58.5748 32.0313 58.3594 32.0313H55.3906C55.1752 32.0313 55 31.8561 55 31.6406V28.6719C55 28.4564 55.1752 28.2813 55.3906 28.2813H58.3594C58.5748 28.2813 58.75 28.4564 58.75 28.6719V31.6406Z" fill="#D4C17F"/>
<path d="M61.0938 41.7969C61.0938 40.2893 59.867 39.0625 58.3594 39.0625H55.3906C53.8831 39.0625 52.6562 40.2893 52.6562 41.7969V44.7656C52.6562 46.2732 53.8831 47.5 55.3906 47.5H58.3594C59.867 47.5 61.0938 46.2732 61.0938 44.7656V41.7969ZM58.75 44.7656C58.75 44.9811 58.5748 45.1563 58.3594 45.1563H55.3906C55.1752 45.1563 55 44.9811 55 44.7656V41.7969C55 41.5814 55.1752 41.4063 55.3906 41.4063H58.3594C58.5748 41.4063 58.75 41.5814 58.75 41.7969V44.7656Z" fill="#D4C17F"/>
<path d="M58.3594 52.1875H55.3906C53.8831 52.1875 52.6562 53.4143 52.6562 54.9219V57.8906C52.6562 59.3982 53.8831 60.625 55.3906 60.625H58.3594C59.867 60.625 61.0938 59.3982 61.0938 57.8906V54.9219C61.0938 53.4143 59.867 52.1875 58.3594 52.1875ZM58.75 57.8906C58.75 58.1061 58.5748 58.2813 58.3594 58.2813H55.3906C55.1752 58.2813 55 58.1061 55 57.8906V54.9219C55 54.7064 55.1752 54.5313 55.3906 54.5313H58.3594C58.5748 54.5313 58.75 54.7064 58.75 54.9219V57.8906Z" fill="#D4C17F"/>
<path d="M48.2813 26.6406H28.2813C27.6337 26.6406 27.1094 27.1655 27.1094 27.8125C27.1094 28.4595 27.6337 28.9844 28.2813 28.9844H48.2813C48.9289 28.9844 49.4532 28.4595 49.4532 27.8125C49.4532 27.1655 48.9289 26.6406 48.2813 26.6406Z" fill="#D4C17F"/>
<path d="M28.2813 31.3281C27.6337 31.3281 27.1094 31.853 27.1094 32.5C27.1094 33.147 27.6337 33.6719 28.2813 33.6719H34.5831C35.2307 33.6719 35.755 33.147 35.755 32.5C35.755 31.853 35.2307 31.3281 34.5831 31.3281H28.2813Z" fill="#D4C17F"/>
<path d="M39.2708 31.3281C38.6238 31.3281 38.0989 31.853 38.0989 32.5C38.0989 33.147 38.6238 33.6719 39.2708 33.6719H43.5939C44.2415 33.6719 44.7658 33.147 44.7658 32.5C44.7658 31.853 44.2415 31.3281 43.5939 31.3281H39.2708Z" fill="#D4C17F"/>
<path d="M48.2813 52.8906H45.625C44.9774 52.8906 44.4531 53.4155 44.4531 54.0625C44.4531 54.7095 44.9774 55.2344 45.625 55.2344H48.2813C48.9288 55.2344 49.4531 54.7095 49.4531 54.0625C49.4531 53.4155 48.9288 52.8906 48.2813 52.8906Z" fill="#D4C17F"/>
<path d="M48.2813 57.5781H41.7188C41.0712 57.5781 40.5469 58.103 40.5469 58.75C40.5469 59.397 41.0712 59.9219 41.7188 59.9219H48.2813C48.9288 59.9219 49.4531 59.397 49.4531 58.75C49.4531 58.103 48.9288 57.5781 48.2813 57.5781Z" fill="#D4C17F"/>
</g>
<defs>
<clipPath id="clip0_922_488">
<rect width="80" height="80" fill="white"/>
</clipPath>
</defs>
</svg>
