<svg width="80" height="80" viewBox="0 0 80 80" fill="none" xmlns="http://www.w3.org/2000/svg">
<g clip-path="url(#clip0_922_470)">
<path d="M78.7261 17.6645C79.4298 17.6645 80 17.0944 80 16.3906V8.06797C80 7.36422 79.4298 6.79406 78.7261 6.79406H16.0344C15.4217 2.94859 12.0831 0 8.06797 0C3.61937 0 0 3.61937 0 8.06797V51.55C0 52.2538 0.570156 52.8239 1.27391 52.8239C1.97766 52.8239 2.54781 52.2538 2.54781 51.55V8.06797C2.54781 5.02406 5.02406 2.54781 8.06797 2.54781C11.1119 2.54781 13.5881 5.02406 13.5881 8.06797V66.0536C12.1439 64.6964 10.2014 63.8642 8.06797 63.8642C5.93453 63.8642 3.99203 64.6964 2.54781 66.0536V58.537C2.54781 57.8333 1.97766 57.2631 1.27391 57.2631C0.570156 57.2631 0 57.8333 0 58.537V71.9322C0 76.3806 3.61937 80 8.06797 80H78.7261C79.4298 80 80 79.4298 80 78.7261V23.0148C80 22.3111 79.4298 21.7409 78.7261 21.7409C78.0223 21.7409 77.4522 22.3111 77.4522 23.0148V77.4522H8.06797C5.02406 77.4522 2.54781 74.9759 2.54781 71.932C2.54781 68.8881 5.02406 66.4119 8.06797 66.4119C11.1119 66.4119 13.5881 68.8881 13.5881 71.932C13.5881 72.6358 14.1583 73.2059 14.862 73.2059C15.5658 73.2059 16.1359 72.6358 16.1359 71.932V9.34187H77.4523V16.3906C77.4522 17.0944 78.0225 17.6645 78.7261 17.6645Z" fill="#D4C17F"/>
<path d="M71.2936 30.1172L47.5144 13.8114C47.0805 13.5137 46.5076 13.5137 46.0738 13.8114L22.2946 30.1172C21.8341 30.4329 21.6329 31.0117 21.7982 31.545C21.9636 32.0781 22.4566 32.4417 23.0151 32.4417H28.5352V55.6264C28.5352 56.3301 29.1054 56.9003 29.8091 56.9003H63.7794C64.4832 56.9003 65.0533 56.3301 65.0533 55.6264V32.4415H70.5735C71.1318 32.4415 71.6249 32.0779 71.7904 31.5448C71.9554 31.0115 71.7541 30.4329 71.2936 30.1172ZM63.7793 29.8939C63.0755 29.8939 62.5054 30.464 62.5054 31.1678V54.3525H31.0829V31.1676C31.0829 30.4639 30.5127 29.8937 29.809 29.8937H27.1252L46.7941 16.4065L66.463 29.8937H63.7793V29.8939Z" fill="#D4C17F"/>
<path d="M50.8706 38.0468C49.2388 38.0468 47.7762 38.7819 46.7941 39.9374C45.8121 38.7819 44.3495 38.0468 42.7177 38.0468C41.6585 38.0468 40.671 38.3574 39.8393 38.8905C39.6626 38.3988 39.1938 38.0468 38.6413 38.0468C37.9376 38.0468 37.3674 38.6169 37.3674 39.3207V50.1911C37.3674 50.8949 37.9376 51.465 38.6413 51.465C39.3451 51.465 39.9152 50.8949 39.9152 50.1911V43.3971C39.9152 41.8518 41.1724 40.5946 42.7177 40.5946C44.2631 40.5946 45.5202 41.8518 45.5202 43.3971V50.1911C45.5202 50.8949 46.0904 51.465 46.7941 51.465C47.4979 51.465 48.0681 50.8949 48.0681 50.1911V43.3971C48.0681 41.8518 49.3252 40.5946 50.8706 40.5946C52.4159 40.5946 53.6731 41.8518 53.6731 43.3971V50.1911C53.6731 50.8949 54.2432 51.465 54.947 51.465C55.6507 51.465 56.2209 50.8949 56.2209 50.1911V43.3971C56.2209 40.4469 53.8207 38.0468 50.8706 38.0468Z" fill="#D4C17F"/>
<path d="M54.9469 33.9704H52.5869L55.8476 30.7099C56.0863 30.471 56.2205 30.1471 56.2205 29.8089C56.2205 27.608 54.4299 25.8174 52.229 25.8174C50.028 25.8174 48.2375 27.608 48.2375 29.8089C48.2375 30.5127 48.8077 31.0828 49.5115 31.0828C50.2152 31.0828 50.7854 30.5127 50.7854 29.8089C50.7854 29.1286 51.2822 28.5238 51.9499 28.3924C52.6543 28.2538 53.3732 28.6733 53.5997 29.3546L48.6108 34.3435C47.8249 35.1296 48.4011 36.518 49.5116 36.518H54.9469C55.6507 36.518 56.2208 35.9479 56.2208 35.2441C56.2208 34.5405 55.6507 33.9704 54.9469 33.9704Z" fill="#D4C17F"/>
<path d="M70.5733 61.1466H23.0149C22.3111 61.1466 21.741 61.7168 21.741 62.4205V71.9322C21.741 72.636 22.3111 73.2061 23.0149 73.2061H55.6263C56.33 73.2061 56.9002 72.636 56.9002 71.9322C56.9002 71.2285 56.33 70.6583 55.6263 70.6583H24.2888V63.6944H28.535V66.4969C28.535 67.2007 29.1052 67.7708 29.8089 67.7708C30.5127 67.7708 31.0828 67.2007 31.0828 66.4969V63.6944H35.3291V66.4969C35.3291 67.2007 35.8992 67.7708 36.603 67.7708C37.3067 67.7708 37.8769 67.2007 37.8769 66.4969V63.6944H42.1232V66.4969C42.1232 67.2007 42.6933 67.7708 43.3971 67.7708C44.1008 67.7708 44.671 67.2007 44.671 66.4969V63.6944H48.9172V66.4969C48.9172 67.2007 49.4874 67.7708 50.1911 67.7708C50.8949 67.7708 51.465 67.2007 51.465 66.4969V63.6944H55.7113V66.4969C55.7113 67.2007 56.2814 67.7708 56.9852 67.7708C57.6889 67.7708 58.2591 67.2007 58.2591 66.4969V63.6944H62.5053V66.4969C62.5053 67.2007 63.0755 67.7708 63.7792 67.7708C64.483 67.7708 65.0531 67.2007 65.0531 66.4969V63.6944H69.2994V70.6583H62.93C62.2263 70.6583 61.6561 71.2285 61.6561 71.9322C61.6561 72.636 62.2263 73.2061 62.93 73.2061H70.5733C71.2771 73.2061 71.8472 72.636 71.8472 71.9322V62.4204C71.8472 61.7168 71.2769 61.1466 70.5733 61.1466Z" fill="#D4C17F"/>
</g>
<defs>
<clipPath id="clip0_922_470">
<rect width="80" height="80" fill="white"/>
</clipPath>
</defs>
</svg>
