<svg width="80" height="80" viewBox="0 0 80 80" fill="none" xmlns="http://www.w3.org/2000/svg">
<g clip-path="url(#clip0_922_555)">
<path d="M79.5056 29.6755L67.2081 20.3465C67.205 20.344 67.2014 20.3421 67.1981 20.3396L72.873 15.2324L75.8681 18.2276C76.6391 18.9986 78.0009 18.4332 78.0009 17.3441V5.34974C78.0009 4.65974 77.4416 4.10037 76.7516 4.10037H64.7572C63.6683 4.10037 63.1026 5.46224 63.8737 6.23318L67.5648 9.92427L61.1178 15.7263L40.8572 0.355991C40.4108 0.0172412 39.7933 0.0172412 39.347 0.355991L24.0264 11.9785V7.93162H25.4423C26.1323 7.93162 26.6917 7.37224 26.6917 6.68224V1.35146C26.6917 0.66146 26.1323 0.102085 25.4423 0.102085H6.78452C6.09452 0.102085 5.53515 0.66146 5.53515 1.35146V6.68224C5.53515 7.37224 6.09452 7.93162 6.78452 7.93162H8.20046V23.9844L0.69843 29.6755C0.27093 29.9997 0.0982738 30.5608 0.269368 31.0693C0.440461 31.5779 0.917024 31.9204 1.45343 31.9204H7.5339V46.1515L0.420149 52.3874C-0.115164 52.8566 -0.143132 53.7071 0.360305 54.2104L3.90202 57.7521C4.36124 58.2113 5.12062 58.2365 5.60921 57.808L7.53437 56.1204V61.3232C7.53437 62.0132 8.09374 62.5726 8.78374 62.5726C9.47374 62.5726 10.0331 62.0132 10.0331 61.3232V53.9379C10.0331 53.9352 10.0328 53.9327 10.0328 53.9301L24.4397 41.2993L25.9573 42.8169C27.3803 44.2399 29.6569 44.2894 31.1406 42.9297L37.6934 36.923C38.202 36.4568 38.2366 35.6665 37.7703 35.1577C37.3041 34.649 36.5137 34.6147 36.005 35.0808L29.4522 41.0877C28.9573 41.541 28.1987 41.5244 27.7245 41.0501L25.3795 38.7051C24.9141 38.2396 24.1673 38.2149 23.6723 38.6491L4.84156 55.1579L3.07077 53.3871L23.7869 35.2282C24.28 34.7966 25.0295 34.8215 25.493 35.2852L27.7994 37.5915C28.2723 38.0644 29.0339 38.081 29.527 37.6291L43.7558 24.5861C44.2506 24.1329 45.0092 24.1494 45.4834 24.6238L49.1378 28.2782C49.6076 28.7482 50.3631 28.768 50.857 28.3233L70.2153 10.9005C70.7394 10.4288 70.762 9.58724 70.263 9.08834L67.7734 6.59896H75.5022V14.3276L73.8019 12.6274C73.332 12.1576 72.5766 12.1376 72.0826 12.5822L50.7667 31.7665C50.2725 32.2111 49.5175 32.1913 49.0473 31.7213L45.4083 28.0824C44.9353 27.6093 44.1737 27.5929 43.6806 28.0447L41.2569 30.2663C40.7483 30.7326 40.7137 31.5229 41.1801 32.0316C41.6464 32.5404 42.4367 32.5746 42.9455 32.1083L44.4872 30.6951L47.2803 33.488C48.6903 34.8982 50.9559 34.9579 52.4383 33.6238L65.378 21.9782C65.4581 22.1136 75.0362 29.4218 75.0362 29.4218H71.4206C70.7306 29.4218 70.1712 29.9811 70.1712 30.6711V77.3991H10.033V69.3196C10.033 68.6296 9.47359 68.0702 8.78359 68.0702C8.09359 68.0702 7.53421 68.6296 7.53421 69.3196V78.6485C7.53421 79.3385 8.09359 79.8979 8.78359 79.8979H71.4208C72.1108 79.8979 72.6701 79.3385 72.6701 78.6485V31.9207H78.7506C79.2872 31.9207 79.7637 31.5782 79.9347 31.0696C80.1058 30.5608 79.933 29.9997 79.5056 29.6755ZM8.0339 5.43287V2.60083H24.193V5.43287H8.0339ZM21.5275 7.93162V13.8741L10.6992 22.0886V7.93162H21.5275ZM50.0666 25.6724L47.2503 22.8565C45.8273 21.4333 43.5506 21.3838 42.067 22.7436L28.72 34.9783L27.2595 33.518C25.8692 32.1272 23.6205 32.0526 22.1402 33.348L10.0328 43.9611V30.6708C10.0328 29.9808 9.47343 29.4215 8.78343 29.4215H5.16781L40.102 2.91958L59.2269 17.428L50.0666 25.6724Z" fill="#D4C17F"/>
<path d="M40.1021 45.4139C32.7996 45.4139 26.8584 51.3552 26.8584 58.6577C26.8584 65.9602 32.7996 71.9014 40.1021 71.9014C47.4046 71.9014 53.3459 65.9602 53.3459 58.6577C53.3459 51.3552 47.4048 45.4139 40.1021 45.4139ZM40.1021 69.4027C34.1775 69.4027 29.3571 64.5825 29.3571 58.6577C29.3571 52.7328 34.1773 47.9127 40.1021 47.9127C46.027 47.9127 50.8471 52.7328 50.8471 58.6577C50.8471 64.5825 46.0268 69.4027 40.1021 69.4027Z" fill="#D4C17F"/>
<path d="M42.4344 57.4083H41.3516V53.91H44.1004C44.7904 53.91 45.3497 53.3507 45.3497 52.6607C45.3497 51.9707 44.7904 51.4113 44.1004 51.4113H41.3516V49.9953C41.3516 49.3053 40.7922 48.746 40.1022 48.746C39.4122 48.746 38.8529 49.3053 38.8529 49.9953V51.4113H37.77C36.1627 51.4113 34.8547 52.7191 34.8547 54.3266V56.9921C34.8547 58.5994 36.1625 59.9074 37.77 59.9074H38.8529V63.4057H36.1041C35.4141 63.4057 34.8547 63.965 34.8547 64.655C34.8547 65.345 35.4141 65.9044 36.1041 65.9044H38.8529V67.3203C38.8529 68.0103 39.4122 68.5697 40.1022 68.5697C40.7922 68.5697 41.3516 68.0103 41.3516 67.3203V65.9044H42.4344C44.0418 65.9044 45.3497 64.5966 45.3497 62.9891V60.3236C45.3496 58.7161 44.0418 57.4083 42.4344 57.4083ZM38.8527 57.4083H37.7699C37.5404 57.4083 37.3535 57.2214 37.3535 56.9919V54.3264C37.3535 54.0969 37.5404 53.91 37.7699 53.91H38.8527V57.4083ZM42.8508 62.9891C42.8508 63.2186 42.664 63.4055 42.4344 63.4055H41.3516V59.9072H42.4344C42.664 59.9072 42.8508 60.0941 42.8508 60.3236V62.9891Z" fill="#D4C17F"/>
</g>
<defs>
<clipPath id="clip0_922_555">
<rect width="80" height="80" fill="white"/>
</clipPath>
</defs>
</svg>
