<svg width="142" height="60" viewBox="0 0 142 60" fill="none" xmlns="http://www.w3.org/2000/svg">
<path d="M1.47656 37V12.3906H4.53516V37H1.47656ZM6.29297 26.3477V23.5703H9.49219C11.9766 23.5234 13.2305 22.1406 13.2539 19.4219C13.207 16.6328 11.7891 15.2266 9 15.2031H6.29297V12.3906H9.5625C12.9609 12.5078 15.0586 13.9258 15.8555 16.6445C16.0898 17.418 16.207 18.2617 16.207 19.1758C16.1836 21.8945 15.375 23.8047 13.7812 24.9062C15.1406 25.6328 15.9609 26.957 16.2422 28.8789C16.2656 29.043 16.2891 29.207 16.3125 29.3711L16.9102 37H14.0273L13.5 30.7422C13.3125 28.7266 12.7969 27.4375 11.9531 26.875C11.3906 26.5 10.6289 26.3242 9.66797 26.3477H6.29297ZM19.1953 31.7969V23.0781C19.2188 22 19.7344 20.9336 20.7422 19.8789C21.9609 18.6367 23.4375 18.0039 25.1719 17.9805V20.7578C24.0469 20.7578 23.168 21.25 22.5352 22.2344C22.2773 22.6562 22.1484 23.043 22.1484 23.3945V25.7852H30.0234V23.3945C30.0234 22.3398 29.4844 21.5664 28.4062 21.0742C27.9141 20.8398 27.4102 20.7227 26.8945 20.7227V17.9805C28.5117 17.9805 29.9531 18.5547 31.2188 19.7031C32.2734 20.7109 32.8125 21.8242 32.8359 23.043V28.6328H22.1484V31.7969C22.1484 32.4531 22.5234 33.0625 23.2734 33.625C23.8828 34.0469 24.5273 34.2578 25.207 34.2578V37C23.0742 37 21.3984 36.1328 20.1797 34.3984C19.5234 33.4844 19.1953 32.6172 19.1953 31.7969ZM26.8945 37V34.2227C28.3008 34.2227 29.3555 33.6133 30.0586 32.3945C30.1992 32.1367 30.3047 31.8906 30.375 31.6562L32.8711 32.5703C32.4492 34.1875 31.4883 35.4062 29.9883 36.2266C29.0273 36.7422 27.9961 37 26.8945 37ZM35.6133 37V23.1133C35.6133 21.8008 36.1055 20.6289 37.0898 19.5977C38.1914 18.4727 39.5859 17.9102 41.2734 17.9102V20.793C40.0078 20.793 39.1758 21.3438 38.7773 22.4453C38.6602 22.7969 38.6016 23.1484 38.6016 23.5V37H35.6133ZM42.8555 20.793V17.9102C44.6367 17.957 46.043 18.5781 47.0742 19.7734C48.2461 18.5781 49.6523 17.957 51.293 17.9102V20.793C50.0273 20.793 49.1836 21.3438 48.7617 22.4453C48.6445 22.7734 48.5859 23.125 48.5859 23.5V37H45.5977V23.5C45.5977 22.3047 45.0938 21.4844 44.0859 21.0391C43.7109 20.875 43.3008 20.793 42.8555 20.793ZM52.875 20.793V17.9102C55.1016 17.9102 56.7539 18.8242 57.832 20.6523C58.3242 21.4961 58.5703 22.3164 58.5703 23.1133V37H55.582V23.5C55.582 22.2109 55.043 21.3672 53.9648 20.9688C53.6367 20.8516 53.2734 20.793 52.875 20.793ZM61.3125 37V12.3906H64.3711V23.1133H67.5352V26.1016H64.3711V37H61.3125ZM69.293 26.1016V23.1133H72.4219V12.3906H75.5156V37H72.4219V26.1016H69.293ZM78.2578 31.7969V23.1133C78.2578 22.0117 78.75 20.9336 79.7344 19.8789C80.9531 18.6133 82.4766 17.9805 84.3047 17.9805V20.8281C82.9219 20.8281 81.9609 21.4023 81.4219 22.5508C81.2578 22.9023 81.1758 23.2539 81.1758 23.6055V31.3398C81.1758 32.207 81.5742 32.9453 82.3711 33.5547C82.9336 33.9766 83.5781 34.1875 84.3047 34.1875V37.0352C82.0781 37.0352 80.3555 36.1328 79.1367 34.3281C78.5508 33.4375 78.2578 32.5938 78.2578 31.7969ZM85.8164 37.0352V34.1875C87.0586 34.1875 87.9492 33.625 88.4883 32.5C88.6758 32.125 88.7695 31.7617 88.7695 31.4102V23.6055C88.7695 22.6445 88.3594 21.8828 87.5391 21.3203C87.0234 20.9922 86.4375 20.8281 85.7812 20.8281V17.9805C87.9375 17.9805 89.6016 18.8594 90.7734 20.6172C91.3594 21.4844 91.6523 22.3164 91.6523 23.1133V31.7969C91.6523 32.9453 91.1602 34.0586 90.1758 35.1367C89.0273 36.3789 87.5742 37.0117 85.8164 37.0352ZM94.3242 31.9375V18.0156H97.3125V31.5859C97.3125 32.4297 97.7344 33.1328 98.5781 33.6953C99.1406 34.0469 99.7617 34.2227 100.441 34.2227V37.1758C98.1914 37.1758 96.457 36.2969 95.2383 34.5391C94.6289 33.6484 94.3242 32.7812 94.3242 31.9375ZM101.988 37.1758V34.2227C103.254 34.2227 104.18 33.7188 104.766 32.7109C104.977 32.3359 105.082 31.9609 105.082 31.5859V18.0156H108.07V31.9375C108.07 33.0391 107.566 34.1289 106.559 35.207C105.34 36.4961 103.816 37.1523 101.988 37.1758ZM110.109 32.0078L112.887 31.4805C112.887 32.5352 113.438 33.3672 114.539 33.9766C115.078 34.2344 115.594 34.375 116.086 34.3984V37.1758C113.812 37.1758 112.113 36.3555 110.988 34.7148C110.402 33.8477 110.109 32.9453 110.109 32.0078ZM110.285 23.3594C110.285 21.2266 111.258 19.6445 113.203 18.6133C114.141 18.1211 115.078 17.875 116.016 17.875V20.6172C114.938 20.6172 114.105 21.0625 113.52 21.9531C113.215 22.3984 113.062 22.8672 113.062 23.3594C113.062 24.1094 113.648 24.7188 114.82 25.1875C115.711 25.5625 117.434 26.0547 119.988 26.6641C121.582 26.9922 122.719 27.7773 123.398 29.0195C123.75 29.6758 123.926 30.4141 123.926 31.2344C123.926 33.4844 123.023 35.1484 121.219 36.2266C120.164 36.8594 118.957 37.1758 117.598 37.1758V34.3984C118.676 34.3984 119.578 34.0234 120.305 33.2734C120.82 32.7344 121.078 32.1016 121.078 31.375C121.078 30.4375 120.152 29.6875 118.301 29.125C117.832 28.9844 117.082 28.7852 116.051 28.5273C114.949 28.2695 114.152 28.0586 113.66 27.8945C111.879 27.1914 110.801 26.125 110.426 24.6953C110.332 24.2734 110.285 23.8281 110.285 23.3594ZM117.562 20.6523V17.875C119.578 17.875 121.207 18.625 122.449 20.125C123.223 21.0859 123.609 22.0938 123.609 23.1484L120.832 23.6055C120.832 22.3164 120.129 21.4141 118.723 20.8984C118.301 20.7344 117.914 20.6523 117.562 20.6523ZM126 31.7969V23.0781C126.023 22 126.539 20.9336 127.547 19.8789C128.766 18.6367 130.242 18.0039 131.977 17.9805V20.7578C130.852 20.7578 129.973 21.25 129.34 22.2344C129.082 22.6562 128.953 23.043 128.953 23.3945V25.7852H136.828V23.3945C136.828 22.3398 136.289 21.5664 135.211 21.0742C134.719 20.8398 134.215 20.7227 133.699 20.7227V17.9805C135.316 17.9805 136.758 18.5547 138.023 19.7031C139.078 20.7109 139.617 21.8242 139.641 23.043V28.6328H128.953V31.7969C128.953 32.4531 129.328 33.0625 130.078 33.625C130.688 34.0469 131.332 34.2578 132.012 34.2578V37C129.879 37 128.203 36.1328 126.984 34.3984C126.328 33.4844 126 32.6172 126 31.7969ZM133.699 37V34.2227C135.105 34.2227 136.16 33.6133 136.863 32.3945C137.004 32.1367 137.109 31.8906 137.18 31.6562L139.676 32.5703C139.254 34.1875 138.293 35.4062 136.793 36.2266C135.832 36.7422 134.801 37 133.699 37Z" fill="white"/>
<path d="M1.068 57V48.48H4.596C4.964 48.48 5.3 48.556 5.604 48.708C5.916 48.86 6.184 49.068 6.408 49.332C6.632 49.588 6.808 49.876 6.936 50.196C7.064 50.508 7.128 50.828 7.128 51.156C7.128 51.62 7.024 52.06 6.816 52.476C6.616 52.884 6.332 53.216 5.964 53.472C5.596 53.728 5.164 53.856 4.668 53.856H1.908V57H1.068ZM1.908 53.112H4.632C4.968 53.112 5.26 53.02 5.508 52.836C5.756 52.652 5.948 52.412 6.084 52.116C6.22 51.82 6.288 51.5 6.288 51.156C6.288 50.804 6.208 50.48 6.048 50.184C5.888 49.888 5.676 49.656 5.412 49.488C5.156 49.312 4.872 49.224 4.56 49.224H1.908V53.112ZM16.7768 56.256V57H11.0528V48.48H16.6688V49.224H11.8928V52.296H16.0568V53.004H11.8928V56.256H16.7768ZM28.4333 57V50.064L25.3493 55.452H24.8213L21.7253 50.064V57H20.8853V48.48H21.7493L25.0733 54.312L28.4213 48.48H29.2733V57H28.4333ZM37.3608 57.06C36.7608 57.06 36.2168 56.94 35.7288 56.7C35.2408 56.46 34.8208 56.136 34.4688 55.728C34.1168 55.312 33.8448 54.848 33.6528 54.336C33.4608 53.816 33.3648 53.284 33.3648 52.74C33.3648 52.172 33.4648 51.632 33.6648 51.12C33.8648 50.6 34.1448 50.14 34.5048 49.74C34.8728 49.332 35.3008 49.012 35.7888 48.78C36.2768 48.54 36.8048 48.42 37.3728 48.42C37.9728 48.42 38.5168 48.544 39.0048 48.792C39.4928 49.04 39.9088 49.372 40.2528 49.788C40.6048 50.204 40.8768 50.668 41.0688 51.18C41.2608 51.692 41.3568 52.216 41.3568 52.752C41.3568 53.32 41.2568 53.864 41.0568 54.384C40.8568 54.896 40.5768 55.356 40.2168 55.764C39.8568 56.164 39.4328 56.48 38.9448 56.712C38.4568 56.944 37.9288 57.06 37.3608 57.06ZM34.2048 52.74C34.2048 53.204 34.2808 53.652 34.4328 54.084C34.5848 54.508 34.8008 54.888 35.0808 55.224C35.3608 55.552 35.6928 55.816 36.0768 56.016C36.4688 56.208 36.8968 56.304 37.3608 56.304C37.8488 56.304 38.2848 56.204 38.6688 56.004C39.0608 55.796 39.3928 55.524 39.6648 55.188C39.9448 54.844 40.1568 54.46 40.3008 54.036C40.4448 53.612 40.5168 53.18 40.5168 52.74C40.5168 52.276 40.4408 51.832 40.2888 51.408C40.1368 50.984 39.9168 50.604 39.6288 50.268C39.3488 49.932 39.0168 49.668 38.6328 49.476C38.2488 49.284 37.8248 49.188 37.3608 49.188C36.8808 49.188 36.4448 49.288 36.0528 49.488C35.6688 49.688 35.3368 49.96 35.0568 50.304C34.7848 50.64 34.5728 51.02 34.4208 51.444C34.2768 51.868 34.2048 52.3 34.2048 52.74ZM52.1805 48.48V57H51.3525V53.016H46.3005V57H45.4605V48.48H46.3005V52.272H51.3525V48.48H52.1805ZM62.8879 49.224H59.8519V57H59.0119V49.224H55.9759V48.48H62.8879V49.224ZM71.9111 57V48.48H72.7511V52.272H74.0351L76.9631 48.48H77.9351L74.7311 52.608L78.1391 57H77.1071L74.0591 53.04H72.7511V57H71.9111ZM88.4446 54.804C88.4446 55.228 88.3366 55.608 88.1206 55.944C87.9046 56.272 87.6126 56.532 87.2446 56.724C86.8846 56.908 86.4886 57 86.0566 57H82.0366V48.48H86.1406C86.5406 48.48 86.8846 48.588 87.1726 48.804C87.4686 49.012 87.6926 49.284 87.8446 49.62C88.0046 49.948 88.0846 50.292 88.0846 50.652C88.0846 51.076 87.9766 51.468 87.7606 51.828C87.5446 52.188 87.2446 52.456 86.8606 52.632C87.3486 52.776 87.7326 53.044 88.0126 53.436C88.3006 53.828 88.4446 54.284 88.4446 54.804ZM87.6046 54.66C87.6046 54.372 87.5406 54.108 87.4126 53.868C87.2846 53.62 87.1086 53.42 86.8846 53.268C86.6686 53.116 86.4206 53.04 86.1406 53.04H82.8766V56.268H86.0566C86.3446 56.268 86.6046 56.192 86.8366 56.04C87.0686 55.888 87.2526 55.692 87.3886 55.452C87.5326 55.204 87.6046 54.94 87.6046 54.66ZM82.8766 49.212V52.356H85.8046C86.0846 52.356 86.3326 52.284 86.5486 52.14C86.7646 51.988 86.9366 51.792 87.0646 51.552C87.1926 51.312 87.2566 51.056 87.2566 50.784C87.2566 50.496 87.1966 50.236 87.0766 50.004C86.9566 49.764 86.7926 49.572 86.5846 49.428C86.3766 49.284 86.1406 49.212 85.8766 49.212H82.8766ZM95.013 48.48H95.721L99.261 57H98.373L97.269 54.336H93.441L92.349 57H91.449L95.013 48.48ZM97.077 53.676L95.361 49.464L93.621 53.676H97.077ZM103.002 57V48.48H106.53C106.898 48.48 107.234 48.556 107.538 48.708C107.85 48.86 108.118 49.068 108.342 49.332C108.566 49.588 108.742 49.876 108.87 50.196C108.998 50.508 109.062 50.828 109.062 51.156C109.062 51.62 108.958 52.06 108.75 52.476C108.55 52.884 108.266 53.216 107.898 53.472C107.53 53.728 107.098 53.856 106.602 53.856H103.842V57H103.002ZM103.842 53.112H106.566C106.902 53.112 107.194 53.02 107.442 52.836C107.69 52.652 107.882 52.412 108.018 52.116C108.154 51.82 108.222 51.5 108.222 51.156C108.222 50.804 108.142 50.48 107.982 50.184C107.822 49.888 107.61 49.656 107.346 49.488C107.09 49.312 106.806 49.224 106.494 49.224H103.842V53.112ZM119.035 49.224H115.999V57H115.159V49.224H112.123V48.48H119.035V49.224ZM122.879 57V48.48H123.707V55.848L128.987 48.48H129.767V57H128.939V49.764L123.719 57H122.879ZM134.469 57V48.48H137.997C138.365 48.48 138.701 48.556 139.005 48.708C139.317 48.86 139.585 49.068 139.809 49.332C140.033 49.588 140.209 49.876 140.337 50.196C140.465 50.508 140.529 50.828 140.529 51.156C140.529 51.62 140.425 52.06 140.217 52.476C140.017 52.884 139.733 53.216 139.365 53.472C138.997 53.728 138.565 53.856 138.069 53.856H135.309V57H134.469ZM135.309 53.112H138.033C138.369 53.112 138.661 53.02 138.909 52.836C139.157 52.652 139.349 52.412 139.485 52.116C139.621 51.82 139.689 51.5 139.689 51.156C139.689 50.804 139.609 50.48 139.449 50.184C139.289 49.888 139.077 49.656 138.813 49.488C138.557 49.312 138.273 49.224 137.961 49.224H135.309V53.112Z" fill="white"/>
</svg>
